# Blender v2.79 (sub 0) OBJ File: 'straight copy.blend'
# www.blender.org
mtllib straight.mtl
o Shape_IndexedFaceSet_Shape_IndexedFaceSet.010
v -8.000001 4.000000 -2.000001
v 7.999999 4.000000 -2.000001
v -8.000001 3.609820 -1.961571
v 7.999999 3.609820 -1.961571
v -8.000001 3.234634 -1.847761
v 7.999999 3.234634 -1.847761
v -8.000001 2.888860 -1.662941
v 7.999999 2.888860 -1.662941
v -8.000001 2.585786 -1.414215
v 7.999999 2.585786 -1.414215
v -8.000001 2.337060 -1.111141
v 7.999999 2.337060 -1.111141
v -8.000001 2.152241 -0.765367
v 7.999999 2.152241 -0.765367
v -8.000001 2.038430 -0.390181
v 7.999999 2.038430 -0.390181
v -8.000001 2.000000 -0.000001
v 7.999999 2.000000 -0.000001
v -8.000001 2.038430 0.390179
v 7.999999 2.038430 0.390179
v -8.000001 2.152241 0.765365
v 7.999999 2.152241 0.765365
v -8.000001 2.337060 1.111139
v 7.999999 2.337060 1.111139
v -8.000001 2.585786 1.414213
v 7.999999 2.585786 1.414213
v -8.000001 2.888860 1.662939
v 7.999999 2.888860 1.662939
v -8.000001 3.234634 1.847759
v 7.999999 3.234634 1.847759
v -8.000001 3.609820 1.961569
v 7.999999 3.609820 1.961569
v -8.000001 4.000000 1.999999
v 7.999999 4.000000 1.999999
v -8.000001 4.390182 1.961569
v 7.999999 4.390182 1.961569
v -8.000001 4.765368 1.847757
v 7.999999 4.765368 1.847757
v -8.000001 5.111143 1.662937
v 7.999999 5.111143 1.662937
v -8.000001 5.414215 1.414211
v 7.999999 5.414215 1.414211
v -8.000001 5.662941 1.111139
v 7.999999 5.662941 1.111139
v -8.000001 5.847760 0.765365
v 7.999999 5.847760 0.765365
v -8.000001 5.961571 0.390177
v 7.999999 5.961571 0.390177
v -8.000001 6.000000 -0.000003
v 7.999999 6.000000 -0.000003
v -8.000001 5.961571 -0.390183
v 7.999999 5.961571 -0.390183
v -8.000001 5.847758 -0.765369
v 7.999999 5.847758 -0.765369
v -8.000001 5.662939 -1.111143
v 7.999999 5.662939 -1.111143
v -8.000001 5.414212 -1.414217
v 7.999999 5.414212 -1.414217
v -8.000001 5.111138 -1.662941
v 7.999999 5.111138 -1.662941
v -8.000001 4.765365 -1.847761
v 7.999999 4.765365 -1.847761
v -8.000001 4.390179 -1.961573
v 7.999999 4.390179 -1.961573
v -7.999999 -4.000000 -1.999999
v 8.000002 -4.000000 -1.999999
v -7.999999 -4.390179 -1.961568
v 8.000002 -4.390179 -1.961568
v -7.999999 -4.765365 -1.847758
v 8.000002 -4.765365 -1.847758
v -7.999999 -5.111140 -1.662938
v 8.000002 -5.111140 -1.662938
v -7.999999 -5.414214 -1.414212
v 8.000002 -5.414214 -1.414212
v -7.999999 -5.662940 -1.111138
v 8.000002 -5.662940 -1.111138
v -7.999999 -5.847760 -0.765365
v 8.000002 -5.847760 -0.765365
v -7.999999 -5.961569 -0.390178
v 8.000002 -5.961569 -0.390178
v -7.999999 -6.000000 0.000002
v 8.000002 -6.000000 0.000002
v -7.999999 -5.961569 0.390182
v 8.000002 -5.961569 0.390182
v -7.999999 -5.847760 0.765368
v 8.000002 -5.847760 0.765368
v -7.999999 -5.662940 1.111142
v 8.000002 -5.662940 1.111142
v -7.999999 -5.414214 1.414216
v 8.000002 -5.414214 1.414216
v -7.999999 -5.111140 1.662942
v 8.000002 -5.111140 1.662942
v -7.999999 -4.765365 1.847762
v 8.000002 -4.765365 1.847762
v -7.999999 -4.390179 1.961572
v 8.000002 -4.390179 1.961572
v -7.999999 -4.000000 2.000001
v 8.000002 -4.000000 2.000001
v -7.999999 -3.609818 1.961571
v 8.000002 -3.609818 1.961571
v -7.999999 -3.234632 1.847759
v 8.000002 -3.234632 1.847759
v -7.999999 -2.888857 1.662939
v 8.000002 -2.888857 1.662939
v -7.999999 -2.585785 1.414213
v 8.000002 -2.585785 1.414213
v -7.999999 -2.337059 1.111141
v 8.000002 -2.337059 1.111141
v -7.999999 -2.152239 0.765367
v 8.000002 -2.152239 0.765367
v -7.999999 -2.038430 0.390179
v 8.000002 -2.038430 0.390179
v -7.999999 -2.000000 -0.000001
v 8.000002 -2.000000 -0.000001
v -7.999999 -2.038430 -0.390181
v 8.000002 -2.038430 -0.390181
v -7.999999 -2.152241 -0.765367
v 8.000002 -2.152241 -0.765367
v -7.999999 -2.337061 -1.111141
v 8.000002 -2.337061 -1.111141
v -7.999999 -2.585787 -1.414215
v 8.000002 -2.585787 -1.414215
v -7.999999 -2.888862 -1.662939
v 8.000002 -2.888862 -1.662939
v -7.999999 -3.234635 -1.847759
v 8.000002 -3.234635 -1.847759
v -7.999999 -3.609821 -1.961571
v 8.000002 -3.609821 -1.961571
vn 0.0000 0.2903 0.9569
vn 0.0000 -0.7730 0.6344
vn 0.0000 0.9952 -0.0980
vn 0.0000 0.7730 0.6344
vn 0.0000 -0.2903 -0.9569
vn 0.0000 0.9569 0.2903
vn 0.0000 -0.9569 -0.2903
vn 0.0000 0.2903 -0.9569
vn 0.0000 -0.6344 -0.7730
vn 0.0000 -0.7730 -0.6344
vn 0.0000 -0.8819 -0.4714
vn 0.0000 -0.9952 -0.0980
vn 0.0000 -0.9952 0.0980
vn 0.0000 -0.9569 0.2903
vn 0.0000 -0.8819 0.4714
vn 0.0000 -0.4714 0.8819
vn 0.0000 0.9569 -0.2903
vn 0.0000 -0.0980 0.9952
vn 0.0000 0.9952 0.0980
vn 0.0000 0.8819 -0.4714
vn 0.0000 0.6344 -0.7730
vn 0.0000 0.4714 0.8819
vn 0.0000 0.4714 -0.8819
vn 0.0000 0.0980 -0.9952
vn 0.0000 -0.6344 0.7730
vn 0.0000 0.0980 0.9952
vn 0.0000 0.8819 0.4714
vn 0.0000 0.6344 0.7730
vn 0.0000 -0.2903 0.9569
vn 0.0000 -0.4714 -0.8819
vn 0.0000 -0.0980 -0.9952
vn 0.0000 0.7730 -0.6344
usemtl Material.001
s off
f 38//1 37//1 35//1 36//1
f 24//2 26//2 25//2 23//2
f 50//3 52//3 51//3 49//3
f 44//4 43//4 41//4 42//4
f 6//5 5//5 3//5 4//5
f 46//6 48//6 47//6 45//6
f 16//7 15//7 13//7 14//7
f 126//8 128//8 127//8 125//8
f 8//9 10//9 9//9 7//9
f 12//10 11//10 9//10 10//10
f 11//11 12//11 14//11 13//11
f 16//12 18//12 17//12 15//12
f 18//13 20//13 19//13 17//13
f 22//14 21//14 19//14 20//14
f 22//15 24//15 23//15 21//15
f 30//16 29//16 27//16 28//16
f 54//17 53//17 51//17 52//17
f 32//18 34//18 33//18 31//18
f 48//19 50//19 49//19 47//19
f 56//20 55//20 53//20 54//20
f 60//21 59//21 57//21 58//21
f 102//22 104//22 103//22 101//22
f 60//23 62//23 61//23 59//23
f 96//18 98//18 97//18 95//18
f 40//22 39//22 37//22 38//22
f 2//24 1//24 63//24 64//24
f 26//25 28//25 27//25 25//25
f 98//26 100//26 99//26 97//26
f 44//27 46//27 45//27 43//27
f 40//28 42//28 41//28 39//28
f 116//17 118//17 117//17 115//17
f 30//29 32//29 31//29 29//29
f 6//30 8//30 7//30 5//30
f 114//19 113//19 111//19 112//19
f 92//25 91//25 89//25 90//25
f 116//3 115//3 113//3 114//3
f 79//7 77//7 78//7 80//7
f 66//31 68//31 67//31 65//31
f 72//30 71//30 69//30 70//30
f 74//9 73//9 71//9 72//9
f 77//11 75//11 76//11 78//11
f 56//32 58//32 57//32 55//32
f 80//12 82//12 81//12 79//12
f 84//13 83//13 81//13 82//13
f 84//14 86//14 85//14 83//14
f 86//15 88//15 87//15 85//15
f 94//16 93//16 91//16 92//16
f 100//1 102//1 101//1 99//1
f 106//4 108//4 107//4 105//4
f 118//20 120//20 119//20 117//20
f 120//32 122//32 121//32 119//32
f 34//26 36//26 35//26 33//26
f 124//21 123//21 121//21 122//21
f 126//23 125//23 123//23 124//23
f 128//24 66//24 65//24 127//24
f 2//31 4//31 3//31 1//31
f 61//8 62//8 64//8 63//8
f 109//27 107//27 108//27 110//27
f 112//6 111//6 109//6 110//6
f 104//28 106//28 105//28 103//28
f 95//29 93//29 94//29 96//29
f 87//2 88//2 90//2 89//2
f 74//10 76//10 75//10 73//10
f 70//5 69//5 67//5 68//5
